<svg xmlns="http://www.w3.org/2000/svg" width="350" height="350" version="1.1">
  <rect width="100%" height="100%" fill="#272822"/>
  <path fill="#f8f8f2" d="M200 305L200 260C200 227.2 185.7 197.8 163 177.7 185.6 159.4 200 131.4 200 100 200 44.8 155.2 0 100 0L50 0 0 0 0 25 0 50 100 50C127.6 50 150 72.4 150 100 150 127.6 127.6 150 100 150L0 150 0 200 95 200C125.4 200 150 224.6 150 255L150 345C150 346.7 149.9 348.4 149.8 350L174.9 350 200 350 200 305 200 305ZM0 150L50 150 50 200 0 200 0 150Z"/>
</svg>
