<svg version="1" xmlns="http://www.w3.org/2000/svg" width="1364" height="1364" viewBox="0 0 1023.000000 1023.000000"><path d="M0 72.5v72.4l155.8.4c154 .3 155.8.3 165.2 2.4 12.8 2.8 20.4 5.5 33.7 11.8 72.8 34.6 104.1 121.8 69.7 194.5-20.9 44.2-62.6 75.1-111.4 82.5-7.7 1.2-24.4 1.5-88.2 1.5H146v146h70.3c82.1 0 88.1.5 112.7 8.6 53 17.6 94.5 64.6 106 119.9 3.8 18.7 4.1 31.6 3.8 173.8l-.3 136.7h145.6l-.4-147.3-.3-147.2-2.2-14C569.1 640 539 581.1 486.7 529.1l-10.4-10.3 8.6-7.8c30-26.9 51.7-55.3 68.6-89.5 20.5-41.4 30.5-83.3 30.5-128 0-110.2-57.6-206.8-155.3-260.1C398.7 17 358.2 4.6 323.1 1c-6.6-.6-65.8-1-166.7-1H0v72.5z"/></svg>