<svg version="1" xmlns="http://www.w3.org/2000/svg" width="933.333" height="933.333" viewBox="0 0 700.000000 700.000000"><path d="M216 .6c1.4.2 6.6.9 11.5 1.5 12.4 1.5 30.9 6.3 44 11.4C298.9 24.1 319.9 37.8 341 59c21.2 21.2 35 42.2 45.5 69.5 19.8 51.6 17.5 108.6-6.5 158.4-10.9 22.4-23.5 39.6-42.3 57.7l-11.4 11 7.6 7.5c36.7 35.7 60.2 85 65.1 136.4.6 6.7 1 48.3 1 105.7V700h300V0L456.8.1C323 .2 214.6.4 216 .6z"/><path d="M0 400v300h300v-98.8c0-105.6-.1-107.5-5.1-123.8-10.5-34-38.3-61.8-72.3-72.3-14.9-4.6-22-5.1-73.8-5.1H100V300h53.9c43.5 0 55.5-.3 62.5-1.5 54.4-9.5 91.4-61.3 82.1-114.9-7.4-42.1-40-74.7-82.1-82.1-7.3-1.3-24.4-1.5-112.5-1.5H0v300z"/></svg>